{
    "asset" : {
        "generator" : "Khronos glTF Blender I/O v3.4.50",
        "version" : "2.0"
    },
    "extensionsUsed" : [
        "KHR_materials_specular",
        "KHR_materials_ior"
    ],
    "scene" : 0,
    "scenes" : [
        {
            "name" : "Scene",
            "nodes" : [
                0,
                1,
                2,
                3,
                4,
                5,
                6
            ]
        }
    ],
    "nodes" : [
        {
            "mesh" : 0,
            "name" : "Plano.001"
        },
        {
            "mesh" : 1,
            "name" : "Plano.002"
        },
        {
            "mesh" : 2,
            "name" : "Plano.003"
        },
        {
            "mesh" : 3,
            "name" : "Texto",
            "rotation" : [
                0.5,
                0.5,
                -0.4999999403953552,
                0.5000000596046448
            ],
            "translation" : [
                0.11417976021766663,
                0.0002168416976928711,
                0.004801493138074875
            ]
        },
        {
            "mesh" : 4,
            "name" : "Texto.001",
            "rotation" : [
                0.5,
                0.5,
                -0.4999999403953552,
                0.5000000596046448
            ],
            "translation" : [
                0.01317756436765194,
                0.0002168416976928711,
                0.14187845587730408
            ]
        },
        {
            "mesh" : 5,
            "name" : "Texto.002",
            "rotation" : [
                0.5,
                0.5,
                -0.4999999403953552,
                0.5000000596046448
            ],
            "translation" : [
                0.10231972485780716,
                0.01847843825817108,
                -0.10421153157949448
            ]
        },
        {
            "mesh" : 6,
            "name" : "TQ2_ARD-node"
        }
    ],
    "materials" : [
        {
            "doubleSided" : true,
            "name" : "Material.001",
            "pbrMetallicRoughness" : {
                "baseColorFactor" : [
                    0.4902293384075165,
                    0.021092573180794716,
                    0,
                    1
                ],
                "metallicFactor" : 0
            }
        },
        {
            "doubleSided" : true,
            "extensions" : {
                "KHR_materials_specular" : {
                    "specularColorFactor" : [
                        0,
                        0,
                        0
                    ]
                },
                "KHR_materials_ior" : {
                    "ior" : 0
                }
            },
            "name" : "TQ2_ARD_front",
            "pbrMetallicRoughness" : {
                "baseColorTexture" : {
                    "index" : 0
                },
                "metallicFactor" : 0,
                "roughnessFactor" : 0.5
            }
        },
        {
            "doubleSided" : true,
            "extensions" : {
                "KHR_materials_specular" : {
                    "specularColorFactor" : [
                        0,
                        0,
                        0
                    ]
                },
                "KHR_materials_ior" : {
                    "ior" : 0
                }
            },
            "name" : "TQ2_ARD_back",
            "pbrMetallicRoughness" : {
                "baseColorFactor" : [
                    0.5177962183952332,
                    0.3704512119293213,
                    0.21509744226932526,
                    1
                ],
                "metallicFactor" : 0,
                "roughnessFactor" : 0.5
            }
        },
        {
            "doubleSided" : true,
            "extensions" : {
                "KHR_materials_specular" : {
                    "specularColorFactor" : [
                        0,
                        0,
                        0
                    ]
                },
                "KHR_materials_ior" : {
                    "ior" : 0
                }
            },
            "name" : "TQ2_ARD_edge",
            "pbrMetallicRoughness" : {
                "baseColorTexture" : {
                    "index" : 1
                },
                "metallicFactor" : 0,
                "roughnessFactor" : 0.5
            }
        }
    ],
    "meshes" : [
        {
            "name" : "Plano",
            "primitives" : [
                {
                    "attributes" : {
                        "POSITION" : 0,
                        "TEXCOORD_0" : 1,
                        "NORMAL" : 2
                    },
                    "indices" : 3,
                    "material" : 0
                }
            ]
        },
        {
            "name" : "Plano.001",
            "primitives" : [
                {
                    "attributes" : {
                        "POSITION" : 4,
                        "TEXCOORD_0" : 5,
                        "NORMAL" : 6
                    },
                    "indices" : 7,
                    "material" : 0
                }
            ]
        },
        {
            "name" : "Plano.002",
            "primitives" : [
                {
                    "attributes" : {
                        "POSITION" : 8,
                        "TEXCOORD_0" : 9,
                        "NORMAL" : 10
                    },
                    "indices" : 11,
                    "material" : 0
                }
            ]
        },
        {
            "name" : "Texto",
            "primitives" : [
                {
                    "attributes" : {
                        "POSITION" : 12,
                        "TEXCOORD_0" : 13,
                        "NORMAL" : 14
                    },
                    "indices" : 15,
                    "material" : 0
                }
            ]
        },
        {
            "name" : "Texto.001",
            "primitives" : [
                {
                    "attributes" : {
                        "POSITION" : 16,
                        "TEXCOORD_0" : 17,
                        "NORMAL" : 18
                    },
                    "indices" : 19,
                    "material" : 0
                }
            ]
        },
        {
            "name" : "Texto.002",
            "primitives" : [
                {
                    "attributes" : {
                        "POSITION" : 20,
                        "TEXCOORD_0" : 21,
                        "NORMAL" : 22
                    },
                    "indices" : 23,
                    "material" : 0
                }
            ]
        },
        {
            "name" : "TQ2_ARD-geom",
            "primitives" : [
                {
                    "attributes" : {
                        "POSITION" : 24,
                        "TEXCOORD_0" : 25,
                        "NORMAL" : 26
                    },
                    "indices" : 27,
                    "material" : 1
                },
                {
                    "attributes" : {
                        "POSITION" : 28,
                        "TEXCOORD_0" : 29,
                        "NORMAL" : 30
                    },
                    "indices" : 31,
                    "material" : 2
                },
                {
                    "attributes" : {
                        "POSITION" : 32,
                        "TEXCOORD_0" : 33,
                        "NORMAL" : 34
                    },
                    "indices" : 35,
                    "material" : 3
                }
            ]
        }
    ],
    "textures" : [
        {
            "sampler" : 0,
            "source" : 0
        },
        {
            "sampler" : 0,
            "source" : 1
        }
    ],
    "images" : [
        {
            "bufferView" : 28,
            "mimeType" : "image/jpeg",
            "name" : "2-01"
        },
        {
            "bufferView" : 37,
            "mimeType" : "image/png",
            "name" : "TQ2_ARD-I1"
        }
    ],
    "accessors" : [
        {
            "bufferView" : 0,
            "componentType" : 5126,
            "count" : 144,
            "max" : [
                0.10244829207658768,
                0.000834890000987798,
                0.08850470930337906
            ],
            "min" : [
                0.07641666382551193,
                0.00015269938739947975,
                -0.09471136331558228
            ],
            "type" : "VEC3"
        },
        {
            "bufferView" : 1,
            "componentType" : 5126,
            "count" : 144,
            "type" : "VEC2"
        },
        {
            "bufferView" : 2,
            "componentType" : 5126,
            "count" : 144,
            "type" : "VEC3"
        },
        {
            "bufferView" : 3,
            "componentType" : 5123,
            "count" : 216,
            "type" : "SCALAR"
        },
        {
            "bufferView" : 4,
            "componentType" : 5126,
            "count" : 144,
            "max" : [
                0.07152129709720612,
                0.000834890000987798,
                0.11933845281600952
            ],
            "min" : [
                -0.06170130521059036,
                0.00015269938739947975,
                0.09330684691667557
            ],
            "type" : "VEC3"
        },
        {
            "bufferView" : 5,
            "componentType" : 5126,
            "count" : 144,
            "type" : "VEC2"
        },
        {
            "bufferView" : 6,
            "componentType" : 5126,
            "count" : 144,
            "type" : "VEC3"
        },
        {
            "bufferView" : 7,
            "componentType" : 5123,
            "count" : 216,
            "type" : "SCALAR"
        },
        {
            "bufferView" : 8,
            "componentType" : 5126,
            "count" : 144,
            "max" : [
                0.10244829207658768,
                0.05227472260594368,
                -0.093680739402771
            ],
            "min" : [
                0.07641667872667313,
                0.0002733093569986522,
                -0.09436293691396713
            ],
            "type" : "VEC3"
        },
        {
            "bufferView" : 9,
            "componentType" : 5126,
            "count" : 144,
            "type" : "VEC2"
        },
        {
            "bufferView" : 10,
            "componentType" : 5126,
            "count" : 144,
            "type" : "VEC3"
        },
        {
            "bufferView" : 11,
            "componentType" : 5123,
            "count" : 216,
            "type" : "SCALAR"
        },
        {
            "bufferView" : 12,
            "componentType" : 5126,
            "count" : 896,
            "max" : [
                0.014318659901618958,
                0.0010000000474974513,
                8.796446491032839e-05
            ],
            "min" : [
                0.0019743135198950768,
                -0.0010000000474974513,
                -0.00675371615216136
            ],
            "type" : "VEC3"
        },
        {
            "bufferView" : 13,
            "componentType" : 5126,
            "count" : 896,
            "type" : "VEC2"
        },
        {
            "bufferView" : 14,
            "componentType" : 5126,
            "count" : 896,
            "type" : "VEC3"
        },
        {
            "bufferView" : 15,
            "componentType" : 5123,
            "count" : 1548,
            "type" : "SCALAR"
        },
        {
            "bufferView" : 16,
            "componentType" : 5126,
            "count" : 1530,
            "max" : [
                0.014337685890495777,
                0.0010000000474974513,
                8.80212610354647e-05
            ],
            "min" : [
                0.0019755882676690817,
                -0.0010000000474974513,
                -0.006758077070116997
            ],
            "type" : "VEC3"
        },
        {
            "bufferView" : 17,
            "componentType" : 5126,
            "count" : 1530,
            "type" : "VEC2"
        },
        {
            "bufferView" : 18,
            "componentType" : 5126,
            "count" : 1530,
            "type" : "VEC3"
        },
        {
            "bufferView" : 19,
            "componentType" : 5123,
            "count" : 2844,
            "type" : "SCALAR"
        },
        {
            "bufferView" : 20,
            "componentType" : 5126,
            "count" : 1170,
            "max" : [
                0.009480614215135574,
                0.0010000000474974513,
                8.796446491032839e-05
            ],
            "min" : [
                0.0004886914393864572,
                -0.0010000000474974513,
                -0.00675371615216136
            ],
            "type" : "VEC3"
        },
        {
            "bufferView" : 21,
            "componentType" : 5126,
            "count" : 1170,
            "type" : "VEC2"
        },
        {
            "bufferView" : 22,
            "componentType" : 5126,
            "count" : 1170,
            "type" : "VEC3"
        },
        {
            "bufferView" : 23,
            "componentType" : 5123,
            "count" : 2076,
            "type" : "SCALAR"
        },
        {
            "bufferView" : 24,
            "componentType" : 5126,
            "count" : 1229,
            "max" : [
                0.06815211474895477,
                0.05196003615856171,
                0.09035877138376236
            ],
            "min" : [
                -0.06702178716659546,
                0.0003733336925506592,
                -0.08881709724664688
            ],
            "type" : "VEC3"
        },
        {
            "bufferView" : 25,
            "componentType" : 5126,
            "count" : 1229,
            "type" : "VEC2"
        },
        {
            "bufferView" : 26,
            "componentType" : 5126,
            "count" : 1229,
            "type" : "VEC3"
        },
        {
            "bufferView" : 27,
            "componentType" : 5123,
            "count" : 2037,
            "type" : "SCALAR"
        },
        {
            "bufferView" : 29,
            "componentType" : 5126,
            "count" : 1136,
            "max" : [
                0.06636349111795425,
                0.05196003615856171,
                0.08830632269382477
            ],
            "min" : [
                -0.06523673236370087,
                0.002425799146294594,
                -0.08708960562944412
            ],
            "type" : "VEC3"
        },
        {
            "bufferView" : 30,
            "componentType" : 5126,
            "count" : 1136,
            "type" : "VEC2"
        },
        {
            "bufferView" : 31,
            "componentType" : 5126,
            "count" : 1136,
            "type" : "VEC3"
        },
        {
            "bufferView" : 32,
            "componentType" : 5123,
            "count" : 2037,
            "type" : "SCALAR"
        },
        {
            "bufferView" : 33,
            "componentType" : 5126,
            "count" : 602,
            "max" : [
                0.06815211474895477,
                0.05196003615856171,
                0.09035877138376236
            ],
            "min" : [
                -0.06702178716659546,
                0.0003733336925506592,
                -0.08881709724664688
            ],
            "type" : "VEC3"
        },
        {
            "bufferView" : 34,
            "componentType" : 5126,
            "count" : 602,
            "type" : "VEC2"
        },
        {
            "bufferView" : 35,
            "componentType" : 5126,
            "count" : 602,
            "type" : "VEC3"
        },
        {
            "bufferView" : 36,
            "componentType" : 5123,
            "count" : 1062,
            "type" : "SCALAR"
        }
    ],
    "bufferViews" : [
        {
            "buffer" : 0,
            "byteLength" : 1728,
            "byteOffset" : 0,
            "target" : 34962
        },
        {
            "buffer" : 0,
            "byteLength" : 1152,
            "byteOffset" : 1728,
            "target" : 34962
        },
        {
            "buffer" : 0,
            "byteLength" : 1728,
            "byteOffset" : 2880,
            "target" : 34962
        },
        {
            "buffer" : 0,
            "byteLength" : 432,
            "byteOffset" : 4608,
            "target" : 34963
        },
        {
            "buffer" : 0,
            "byteLength" : 1728,
            "byteOffset" : 5040,
            "target" : 34962
        },
        {
            "buffer" : 0,
            "byteLength" : 1152,
            "byteOffset" : 6768,
            "target" : 34962
        },
        {
            "buffer" : 0,
            "byteLength" : 1728,
            "byteOffset" : 7920,
            "target" : 34962
        },
        {
            "buffer" : 0,
            "byteLength" : 432,
            "byteOffset" : 9648,
            "target" : 34963
        },
        {
            "buffer" : 0,
            "byteLength" : 1728,
            "byteOffset" : 10080,
            "target" : 34962
        },
        {
            "buffer" : 0,
            "byteLength" : 1152,
            "byteOffset" : 11808,
            "target" : 34962
        },
        {
            "buffer" : 0,
            "byteLength" : 1728,
            "byteOffset" : 12960,
            "target" : 34962
        },
        {
            "buffer" : 0,
            "byteLength" : 432,
            "byteOffset" : 14688,
            "target" : 34963
        },
        {
            "buffer" : 0,
            "byteLength" : 10752,
            "byteOffset" : 15120,
            "target" : 34962
        },
        {
            "buffer" : 0,
            "byteLength" : 7168,
            "byteOffset" : 25872,
            "target" : 34962
        },
        {
            "buffer" : 0,
            "byteLength" : 10752,
            "byteOffset" : 33040,
            "target" : 34962
        },
        {
            "buffer" : 0,
            "byteLength" : 3096,
            "byteOffset" : 43792,
            "target" : 34963
        },
        {
            "buffer" : 0,
            "byteLength" : 18360,
            "byteOffset" : 46888,
            "target" : 34962
        },
        {
            "buffer" : 0,
            "byteLength" : 12240,
            "byteOffset" : 65248,
            "target" : 34962
        },
        {
            "buffer" : 0,
            "byteLength" : 18360,
            "byteOffset" : 77488,
            "target" : 34962
        },
        {
            "buffer" : 0,
            "byteLength" : 5688,
            "byteOffset" : 95848,
            "target" : 34963
        },
        {
            "buffer" : 0,
            "byteLength" : 14040,
            "byteOffset" : 101536,
            "target" : 34962
        },
        {
            "buffer" : 0,
            "byteLength" : 9360,
            "byteOffset" : 115576,
            "target" : 34962
        },
        {
            "buffer" : 0,
            "byteLength" : 14040,
            "byteOffset" : 124936,
            "target" : 34962
        },
        {
            "buffer" : 0,
            "byteLength" : 4152,
            "byteOffset" : 138976,
            "target" : 34963
        },
        {
            "buffer" : 0,
            "byteLength" : 14748,
            "byteOffset" : 143128,
            "target" : 34962
        },
        {
            "buffer" : 0,
            "byteLength" : 9832,
            "byteOffset" : 157876,
            "target" : 34962
        },
        {
            "buffer" : 0,
            "byteLength" : 14748,
            "byteOffset" : 167708,
            "target" : 34962
        },
        {
            "buffer" : 0,
            "byteLength" : 4074,
            "byteOffset" : 182456,
            "target" : 34963
        },
        {
            "buffer" : 0,
            "byteLength" : 96209,
            "byteOffset" : 186532
        },
        {
            "buffer" : 0,
            "byteLength" : 13632,
            "byteOffset" : 282744,
            "target" : 34962
        },
        {
            "buffer" : 0,
            "byteLength" : 9088,
            "byteOffset" : 296376,
            "target" : 34962
        },
        {
            "buffer" : 0,
            "byteLength" : 13632,
            "byteOffset" : 305464,
            "target" : 34962
        },
        {
            "buffer" : 0,
            "byteLength" : 4074,
            "byteOffset" : 319096,
            "target" : 34963
        },
        {
            "buffer" : 0,
            "byteLength" : 7224,
            "byteOffset" : 323172,
            "target" : 34962
        },
        {
            "buffer" : 0,
            "byteLength" : 4816,
            "byteOffset" : 330396,
            "target" : 34962
        },
        {
            "buffer" : 0,
            "byteLength" : 7224,
            "byteOffset" : 335212,
            "target" : 34962
        },
        {
            "buffer" : 0,
            "byteLength" : 2124,
            "byteOffset" : 342436,
            "target" : 34963
        },
        {
            "buffer" : 0,
            "byteLength" : 767,
            "byteOffset" : 344560
        }
    ],
    "samplers" : [
        {
            "magFilter" : 9729,
            "minFilter" : 9987
        }
    ],
    "buffers" : [
        {
            "byteLength" : 345328,
            "uri" : "data:application/octet-stream;base64,"
        }
    ]
}
